<svg viewBox="0 0 600 600" fill="none" xmlns="http://www.w3.org/2000/svg">
	<path d="M0 240C0 156 0 114 16.35 81.9C30.7308 53.6769 53.6769 30.7308 81.9 16.35C114 0 156 0 240 0H360C444 0 486 0 518.1 16.35C546.323 30.7308 569.269 53.6769 583.65 81.9C600 114 600 156 600 240V360C600 444 600 486 583.65 518.1C569.269 546.323 546.323 569.269 518.1 583.65C486 600 444 600 360 600H240C156 600 114 600 81.9 583.65C53.6769 569.269 30.7308 546.323 16.35 518.1C0 486 0 444 0 360V240Z" fill="url(#paint0_linear_18_12)" />
	<path fill-rule="evenodd" clip-rule="evenodd" d="M186.69 90L210 125.01V463.32L186.69 510H443.73L475.05 420H301.17V90H186.69ZM101.7 311.67C101.674 281.093 108.73 250.926 122.314 223.533C135.899 196.14 155.644 172.265 180 153.78V242.88C167.976 263.81 161.665 287.532 161.7 311.67C161.7 336.72 168.36 360.21 180 380.49V457.83L175.8 466.26C152.653 447.693 133.975 424.16 121.149 397.402C108.323 370.643 101.676 341.344 101.7 311.67ZM438.36 311.67C438.36 340.77 429.39 367.74 414.06 390H482.31C494.269 362.159 499.691 331.949 498.161 301.687C496.632 271.426 488.191 241.916 473.486 215.423C458.781 188.93 438.203 166.157 413.331 148.852C388.458 131.547 359.953 120.168 330 115.59V176.58C360.729 183.418 388.209 200.529 407.904 225.089C427.598 249.648 438.331 280.189 438.33 311.67H438.36Z" fill="#0F0F15" />
	<defs>
		<linearGradient id="paint0_linear_18_12" x1="1.02632e-06" y1="600" x2="600" y2="1.02632e-06" gradientUnits="userSpaceOnUse">
			<stop stop-color="#C89741" />
			<stop offset="1" stop-color="#E7B55D" />
		</linearGradient>
	</defs>
</svg>
