<svg  viewBox="0 0 600 600" fill="none" xmlns="http://www.w3.org/2000/svg">
<path d="M0 240C0 156 0 114 16.35 81.9C30.7308 53.6769 53.6769 30.7308 81.9 16.35C114 0 156 0 240 0H360C444 0 486 0 518.1 16.35C546.323 30.7308 569.269 53.6769 583.65 81.9C600 114 600 156 600 240V360C600 444 600 486 583.65 518.1C569.269 546.323 546.323 569.269 518.1 583.65C486 600 444 600 360 600H240C156 600 114 600 81.9 583.65C53.6769 569.269 30.7308 546.323 16.35 518.1C0 486 0 444 0 360V240Z" fill="url(#paint0_linear_18_37)"/>
<path d="M338.707 401.59L367.567 474.319H414.899L435.679 401.59H338.707Z" fill="#0F0F15"/>
<path d="M290.22 334.632C272.904 291.918 252.124 235.351 257.896 230.733C260.205 228.424 271.749 238.814 289.066 268.829C291.375 272.293 290.22 267.675 290.22 265.366C290.22 242.277 290.22 102.591 290.22 102.591C290.22 102.591 227.881 102.591 222.109 102.591C218.645 102.591 217.491 102.591 217.491 103.745C216.336 104.9 217.491 106.054 217.491 108.363C239.425 174.166 248.661 211.108 244.043 214.571C241.734 216.88 230.19 199.563 211.719 160.312C184.012 100.282 166.696 66.8032 164.387 69.112C160.923 71.4209 180.549 132.606 230.19 269.984C246.352 315.007 252.124 338.096 248.661 340.404C245.197 342.713 235.962 327.706 222.109 299.999C205.946 267.675 199.02 254.976 196.711 254.976C194.402 256.131 200.174 276.911 210.564 306.926C225.572 354.258 250.969 436.223 246.352 439.686C244.043 440.84 235.962 428.142 219.8 392.354C216.336 384.273 214.027 380.81 214.027 380.81C214.027 380.81 212.873 381.964 212.873 384.273C212.873 388.891 212.873 437.377 212.873 437.377L194.402 475.473H279.83C257.896 411.98 250.969 383.119 254.433 381.964C259.05 379.655 277.521 416.597 300.61 475.473C322.544 485.863 350.251 512.415 366.413 527.423C369.876 530.886 371.031 530.886 369.876 527.423C350.251 481.246 324.853 420.061 290.22 334.632Z" fill="#0F0F15"/>
<defs>
<linearGradient id="paint0_linear_18_37" x1="1.02632e-06" y1="600" x2="600" y2="1.02632e-06" gradientUnits="userSpaceOnUse">
<stop stop-color="#2A98C0"/>
<stop offset="1" stop-color="#4AC5F2"/>
</linearGradient>
</defs>
</svg>
