<svg  viewBox="0 0 600 600" fill="none" xmlns="http://www.w3.org/2000/svg">
<path d="M0 240C0 156 0 114 16.35 81.9C30.7308 53.6769 53.6769 30.7308 81.9 16.35C114 0 156 0 240 0H360C444 0 486 0 518.1 16.35C546.323 30.7308 569.269 53.6769 583.65 81.9C600 114 600 156 600 240V360C600 444 600 486 583.65 518.1C569.269 546.323 546.323 569.269 518.1 583.65C486 600 444 600 360 600H240C156 600 114 600 81.9 583.65C53.6769 569.269 30.7308 546.323 16.35 518.1C0 486 0 444 0 360V240Z" fill="url(#paint0_linear_18_15)"/>
<path d="M392.22 298.89C375.06 288.39 380.52 295.74 387.72 302.67C418.41 331.65 438.72 360.09 446.28 384.78C451.2 400.83 446.79 410.61 439.47 396.54C428.25 375.24 413.61 358.83 404.58 351.6C395.7 344.46 395.88 347.91 400.2 353.58C417.69 376.98 428.04 400.53 417.69 418.8C400.59 448.74 331.8 441.18 264.15 402C178.05 352.2 124.95 284.07 144.45 249.21C152.91 233.97 175.95 227.67 203.19 230.01C208.95 230.52 208.62 228.63 203.49 227.25C171.03 218.64 132.69 226.74 119.1 250.47C94.2601 293.61 152.1 373.86 248.34 429.63C268.74 441.39 295.35 454.62 326.76 465.12C345.84 471.51 343.11 479.19 310.32 472.77C275.55 466.05 232.2 447.87 191.25 423.75C179.4 416.82 177.84 419.55 186.63 428.16C194.82 436.14 210.21 448.32 228.93 459.45C324.48 516.45 443.76 531.39 477.99 471.84C508.59 418.59 453.6 336.36 392.22 298.89Z" fill="#0F0F15"/>
<path d="M90 90L141.33 183.36H253.35V359.73C251.82 358.53 254.79 360.87 253.35 359.73C279.24 379.41 318.15 399.06 346.71 402.63C345.24 402.54 348.21 402.81 346.71 402.63V183.3H458.73L510.03 90H90Z" fill="#0F0F15"/>
<defs>
<linearGradient id="paint0_linear_18_15" x1="-2.7027e-06" y1="600" x2="600" y2="-2.7027e-06" gradientUnits="userSpaceOnUse">
<stop stop-color="#D98F37"/>
<stop offset="1" stop-color="#F8B33C"/>
</linearGradient>
</defs>
</svg>
