<svg xmlns="http://www.w3.org/2000/svg" width="18.061" height="18.061"><defs><style>.a{fill:#532fe6}</style></defs><path class="a" d="M18.061 2.796v1.327a3.848 3.848 0 00-2.8-1.2H2.8a3.848 3.848 0 00-2.8 1.2V2.795a2.8 2.8 0 012.8-2.8h12.469a2.8 2.8 0 012.792 2.801z"/><path class="a" d="M18.061 6.78v.6a3.751 3.751 0 00-2.8-1.271H2.8A3.751 3.751 0 000 7.38v-.6a2.8 2.8 0 012.8-2.8h12.469a2.8 2.8 0 012.792 2.8z"/><path class="a" d="M15.264 7.171H2.8A2.917 2.917 0 000 10.189v5.075a2.8 2.8 0 002.8 2.8h12.468a2.8 2.8 0 002.8-2.8v-5.075a2.917 2.917 0 00-2.804-3.018zm-3.683 6.789H9.972a.573.573 0 01-.572-.572v-1.609a.573.573 0 01.572-.573h1.609a.573.573 0 01.572.573v1.609a.573.573 0 01-.572.572zM10 14.934H6.8a.781.781 0 01-.781-.781v-3.195a.781.781 0 01.781-.781H10a.78.78 0 01.763.614h-.786a.992.992 0 00-.99.991v1.609a.991.991 0 00.99.99h.771a.782.782 0 01-.748.553z"/><path class="a" d="M18.061 6.78v.6a3.751 3.751 0 00-2.8-1.271H2.8A3.751 3.751 0 000 7.38v-.6a2.8 2.8 0 012.8-2.8h12.469a2.8 2.8 0 012.792 2.8z"/><path class="a" d="M15.264 7.171H2.8A2.917 2.917 0 000 10.189v5.075a2.8 2.8 0 002.8 2.8h12.468a2.8 2.8 0 002.8-2.8v-5.075a2.917 2.917 0 00-2.804-3.018zm-3.683 6.789H9.972a.573.573 0 01-.572-.572v-1.609a.573.573 0 01.572-.573h1.609a.573.573 0 01.572.573v1.609a.573.573 0 01-.572.572zM10 14.934H6.8a.781.781 0 01-.781-.781v-3.195a.781.781 0 01.781-.781H10a.78.78 0 01.763.614h-.786a.992.992 0 00-.99.991v1.609a.991.991 0 00.99.99h.771a.782.782 0 01-.748.553z"/><path class="a" d="M15.264 7.171H2.8A2.917 2.917 0 000 10.189v5.075a2.8 2.8 0 002.8 2.8h12.468a2.8 2.8 0 002.8-2.8v-5.075a2.917 2.917 0 00-2.804-3.018zm-3.683 6.789H9.972a.573.573 0 01-.572-.572v-1.609a.573.573 0 01.572-.573h1.609a.573.573 0 01.572.573v1.609a.573.573 0 01-.572.572zM10 14.934H6.8a.781.781 0 01-.781-.781v-3.195a.781.781 0 01.781-.781H10a.78.78 0 01.763.614h-.786a.992.992 0 00-.99.991v1.609a.991.991 0 00.99.99h.771a.782.782 0 01-.748.553z"/><path class="a" d="M10.777 10.956v.251h-.8a.573.573 0 00-.572.573v1.609a.573.573 0 00.572.572h.8v.209a.781.781 0 01-.033.209h-.771a.991.991 0 01-.99-.99v-1.607a.992.992 0 01.99-.991h.786a.732.732 0 01.018.165z"/><path class="a" d="M11.582 10.998H9.973a.781.781 0 00-.781.782v1.611a.781.781 0 00.781.781h1.609a.781.781 0 00.781-.781v-1.609a.782.782 0 00-.781-.784zm.572 2.391a.573.573 0 01-.572.572H9.973a.573.573 0 01-.572-.572V11.78a.573.573 0 01.572-.573h1.609a.573.573 0 01.572.573z"/><path class="a" d="M11.582 10.789H9.973a.992.992 0 00-.99.991v1.609a.991.991 0 00.99.99h1.609a.991.991 0 00.99-.99v-1.607a.992.992 0 00-.99-.993zm.572 2.6a.573.573 0 01-.572.572H9.973a.573.573 0 01-.572-.572v-1.607a.573.573 0 01.572-.573h1.609a.573.573 0 01.572.573z"/></svg>