<svg  viewBox="0 0 600 600" fill="none" xmlns="http://www.w3.org/2000/svg">
<path d="M0 240C0 156 0 114 16.35 81.9C30.7308 53.6769 53.6769 30.7308 81.9 16.35C114 0 156 0 240 0H360C444 0 486 0 518.1 16.35C546.323 30.7308 569.269 53.6769 583.65 81.9C600 114 600 156 600 240V360C600 444 600 486 583.65 518.1C569.269 546.323 546.323 569.269 518.1 583.65C486 600 444 600 360 600H240C156 600 114 600 81.9 583.65C53.6769 569.269 30.7308 546.323 16.35 518.1C0 486 0 444 0 360V240Z" fill="url(#paint0_linear_18_6)"/>
<path d="M299.999 68.9993C299.935 68.9993 299.871 68.9979 299.808 68.9979C245.851 68.9979 196.224 87.5375 156.944 118.592L196.46 173.488V173.488C224.59 150.403 260.58 136.545 299.808 136.545C299.871 136.545 299.935 136.546 299.999 136.546C300.063 136.546 300.126 136.545 300.19 136.545C339.418 136.545 375.408 150.403 403.539 173.488V173.488L443.054 118.592C403.773 87.5375 354.147 68.9979 300.19 68.9979C300.126 68.9979 300.063 68.9993 299.999 68.9993Z" fill="#0F0F15"/>
<path d="M299.999 463.453C260.358 463.316 224.051 449.028 195.86 425.378L289.266 339.234V197.013L245.789 295.406L157 377.717C144.583 354.704 137.533 328.367 137.533 300.382C137.533 254.435 156.533 212.929 187.101 183.289L143.203 131.831C98.159 173.922 70 233.862 70 300.382C70 427.558 172.921 530.69 299.999 531C427.077 530.69 529.997 427.558 529.997 300.382C529.997 233.862 501.839 173.922 456.794 131.831L412.897 183.289C443.465 212.929 462.464 254.435 462.464 300.382C462.464 328.367 455.414 354.704 442.998 377.717L354.209 295.406L310.731 197.013V339.234L404.137 425.378C375.946 449.028 339.639 463.316 299.999 463.453Z" fill="#0F0F15"/>
<defs>
<linearGradient id="paint0_linear_18_6" x1="0" y1="600" x2="600" y2="0" gradientUnits="userSpaceOnUse">
<stop stop-color="#F68C1D"/>
<stop offset="1" stop-color="#E97C0A"/>
</linearGradient>
</defs>
</svg>
