<svg  viewBox="0 0 600 600" fill="none" xmlns="http://www.w3.org/2000/svg">
<path d="M0 240C0 156 0 114 16.35 81.9C30.7308 53.6769 53.6769 30.7308 81.9 16.35C114 0 156 0 240 0H360C444 0 486 0 518.1 16.35C546.323 30.7308 569.269 53.6769 583.65 81.9C600 114 600 156 600 240V360C600 444 600 486 583.65 518.1C569.269 546.323 546.323 569.269 518.1 583.65C486 600 444 600 360 600H240C156 600 114 600 81.9 583.65C53.6769 569.269 30.7308 546.323 16.35 518.1C0 486 0 444 0 360V240Z" fill="url(#paint0_linear_18_19)"/>
<path d="M93.54 127.08L368.7 476.7C369.75 478.02 368.82 479.97 367.17 479.97H231.6C231.305 479.969 231.014 479.901 230.749 479.771C230.484 479.641 230.252 479.453 230.07 479.22L90.45 303.84C90.1689 303.491 90.0107 303.058 90 302.61V128.31C90 126.42 92.37 125.61 93.54 127.08ZM326.37 357.6L506.49 129.09C507.66 127.59 510 128.43 510 130.35V303.6C510 304.08 509.85 304.5 509.55 304.89L465.03 360.12C464.847 360.351 464.615 360.538 464.35 360.668C464.085 360.798 463.795 360.867 463.5 360.87H327.9C326.25 360.87 325.32 358.89 326.37 357.57V357.6Z" fill="#0F0F15"/>
<defs>
<linearGradient id="paint0_linear_18_19" x1="600" y1="-3.57628e-05" x2="3.57628e-05" y2="600" gradientUnits="userSpaceOnUse">
<stop stop-color="#FF4655"/>
<stop offset="1" stop-color="#F71E2F"/>
</linearGradient>
</defs>
</svg>
