<svg xmlns="http://www.w3.org/2000/svg" width="18.859" height="7.485"><path d="M.954.953A3.629 3.629 0 013.636 0h6.146a3.2 3.2 0 012.517.953 5.006 5.006 0 010 5.578 3.2 3.2 0 01-2.517.953H3.636a3.624 3.624 0 01-2.69-.953A4.568 4.568 0 01.953.953zm1.721 3.336a2.025 2.025 0 00.841.141h6.311a1.523 1.523 0 00.684-.132.544.544 0 00.263-.538q0-.759-.977-.759h-6.3a1.769 1.769 0 00-.841.159.607.607 0 00-.286.583.545.545 0 00.305.547zm11.436-1.665h1.533V.841h1.7v1.783h1.518v1.995h-1.518v1.8h-1.7v-1.8h-1.533z" fill="#532fe6"/></svg>