<svg xmlns="http://www.w3.org/2000/svg" width="18.525" height="19.1"><defs><style>.a{fill:#532fe6}</style></defs><path class="a" d="M9.805 10.799a2.013 2.013 0 01.129.784v7.259a.26.26 0 01-.261.258h-.874a.26.26 0 01-.261-.259v-7.223q0-1.121.741-1.12a.512.512 0 01.526.301z"/><path class="a" d="M18.11 9.48h-1.472a.414.414 0 00-.414.414v8.792a.414.414 0 01-.414.414h-2.486a.411.411 0 01-.409-.413v-7.054a4.028 4.028 0 00-.93-2.887 4.292 4.292 0 00-5.446 0 4.028 4.028 0 00-.931 2.887v7.052a.411.411 0 01-.409.413H2.713a.414.414 0 01-.414-.414V9.892a.414.414 0 00-.414-.414H.414a.414.414 0 01-.293-.706L8.636.257a.884.884 0 011.25 0l8.516 8.515a.414.414 0 01-.292.708z"/></svg>